<svg xmlns="http://www.w3.org/2000/svg" viewBox="0 0 479.5 549.19">
	<g fill-rule="evenodd">
		<path d="M280 542.16c-54.68 9.41-65.28 9.33-120 0s-51.44-14.33-38.88-37.31c25.89-47.38 68.81-131.54 88.88-202.69 8.79-31.17.1-50.52 0-60-.55-49.82-148.2-135.9-120-150 10.99-5.49 25.01-9.98 40.81-13.47C201.27 63.17 307.33 67.66 340 92.16c25.23 18.92-112.51 100.96-110 150 .54 10.54-8.93 28.64 0 60 20.34 71.47 62.9 155.08 88.71 202.36 12.66 23.19 15.97 28.23-38.71 37.64z" />
		<path d="M287.66 516.53c-30 5-35 30 10 20s59.05 6.55 88.9-3.87c52.45-18.3 80.75-99.91 90-140 15.1-65.36-30-110-90-110-63.24 0-80 70-50 110 8.49 11.32 50 40 90 20s10-50 0-40c-9.13 9.13-20 40-60 20s-20-80 20-80c29.69 0 90 30 80 80-6.92 34.63-37.55 131.7-93.9 133.87-50.21 1.92-55-15-85-10zM159.99 81.64c14.73 23.42-38.9 2.08-59.99 10.52-25 10-3.32-3.83.01-10.38C110 62.16 90 42.16 100 2.16c.78-3.11 8-2.64 10 0 18 23.85 33.33 52.99 49.99 79.48zM270 81.64c-14.73 23.42 38.9 2.08 59.99 10.52 25 10 3.33-3.83-.01-10.38-9.99-19.62 10.01-39.62.01-79.62-.78-3.11-8-2.64-10 0-18 23.85-33.33 52.99-49.99 79.48z" />
		<path d="M221.66 98.05c9.17 24.11 19.17 54.11 98.34 0h-98.34z" fill="#ffff6d" />
		<path d="M250.83 100.77c-4.4 10.7-4.4 10.7 0 21.39 4.4-10.69 4.4-10.69 0-21.39z" />
		<path d="M210 98.05c-9.17 24.11-19.17 54.11-98.34 0H210z" fill="#ffff6d" />
		<path d="M180.83 100.77c4.4 10.7 4.4 10.7 0 21.39-4.4-10.69-4.4-10.69 0-21.39z" />
		<path d="M225.01 137.16c-.5-.56-14.51-.56-15.01 0s6.5 11.17 7.5 11.17 8.01-10.61 7.51-11.17z" fill="#fff" />
		<path d="M179.32 157.16v5c-75-10-106.77-55.49-175-10-3 2-8 0 0-5 66.23-41.39 85 0 175 10z" />
		<path d="M189.32 167.16v5c-75-10-106.77-55.49-175-10-3 2-8 0 0-5 66.23-41.39 85 0 175 10zM260 157.16v5c75-10 106.77-55.49 175-10 3 2 8 0 0-5-66.23-41.39-85 0-175 10z" />
		<path d="M250 167.16v5c75-10 106.77-55.49 175-10 3 2 8 0 0-5-66.23-41.39-85 0-175 10z" />
	</g>
</svg>
